<?xml version="1.0" standalone="no"?>
<!DOCTYPE svg PUBLIC "-//W3C//DTD SVG 1.1//EN" "http://www.w3.org/Graphics/SVG/1.1/DTD/svg11.dtd">
<svg xmlns="http://www.w3.org/2000/svg">
<metadata>Generated by Fontastic.me</metadata>
<defs>
<font id="rte-audio-player" horiz-adv-x="512">
<font-face font-family="rte-audio-player" units-per-em="512" ascent="480" descent="-32"/>
<missing-glyph horiz-adv-x="512" />

<glyph unicode="&#97;" d="m256 288l0 96l-160-128l160-128l0 96l224 0l0 64z m-256 96l64 0l0-256l-64 0z"/>
<glyph unicode="&#98;" d="m294 383l-83-61c-14-11-25-17-25-14c0 2-15 4-32 4l-26 0c-18 0-32-14-32-32l0-70c0-18 14-32 32-32l26 0c17 0 32 1 32 2c0 1 11-7 25-18l83-61c14-10 26-4 26 13l0 256c0 18-12 24-26 13z m99-86l-23-23c8-5 14-15 14-26c0-11-6-20-14-26l23-22c14 11 23 29 23 48c0 20-9 37-23 49z"/>
<glyph unicode="&#99;" d="m211 388c-4 0-8-1-13-5l-83-61c-12-9-22-15-25-15l0 1c0 2-15 4-32 4l-26 0c-18 0-32-14-32-32l0-70c0-18 14-32 32-32l26 0c17 0 32 1 32 2l0 0c1 0 12-8 25-18l83-61c5-3 9-5 13-5c8 0 13 6 13 18l0 256c0 12-5 18-13 18z m77-114l192 0l0-64l-192 0z"/>
<glyph unicode="&#100;" d="m448 268l-68 40c-16 9-40 24-56 32l-70 40c-15 9-30 2-30-16l0-64l-11 8c-15 9-39 24-54 32l-68 40c-15 9-27 2-27-16l0-224c0-17 12-24 28-16l68 40c15 9 38 24 53 32l11 8l0-64c0-17 15-24 30-16l69 40c15 9 41 24 56 32l69 40c15 9 15 24 0 32z"/>
<glyph unicode="&#101;" d="m419 419c-96 95-251 95-347 0c-48-48-72-111-72-174c0-63 24-125 72-173c48-48 110-72 173-72c63 0 126 24 174 72c95 95 95 251 0 347z m-170-286l0 75l-32-19l-96-56l0 224l96-56l32-18l0 74l192-112z"/>
<glyph unicode="&#102;" d="m368 384l-30 0c-8 0-18-8-18-17l0-77l-43 26c-15 8-40 23-55 32l-67 40c-15 8-27 1-27-16l0-224c0-18 12-25 27-16l68 40c15 8 39 23 54 32l43 26l0-86c0-9 9-16 18-16l30 0c9 0 16 7 16 16l0 223c0 9-7 17-16 17z"/>
<glyph unicode="&#103;" d="m337 390l-83-61c-14-10-26-17-26-14c0 2-14 4-32 4l-25 0c-18 0-32-14-32-32l0-70c0-18 14-32 32-32l25 0c18 0 32 1 32 2c0 1 12-7 26-18l83-61c14-10 26-4 26 13l0 256c0 18-12 24-26 13z"/>
<glyph unicode="&#104;" d="m448 403l-45 45l-45-45c10-11 16-26 16-45l0-29z m-314-285c-17 0-33 5-46 15l-50-50l45-45l80 80l-3 0z m166 247l-83-61c-14-11-25-17-25-14c0 2-15 4-32 4l-26 0c-18 0-32-14-32-32l0-70c0-18 14-32 32-32l26 0c17 0 32 1 32 2c0 0 11-7 25-18l83-61c14-10 26-5 26 13l0 256c0 18-12 23-26 13z"/>
<glyph unicode="&#105;" d="m356 380l-68-40c-15-8-40-23-55-32l-44-26l0 78c0 9-8 16-16 16l-30 0c-9 0-16-7-16-16l0-215c0-9 7-16 16-16l30 0c8 0 16 7 16 16l0 77l44-26c15-8 40-23 55-32l68-40c16-8 28-1 28 16l0 224c0 18-12 25-28 16z"/>
<glyph unicode="&#106;" d="m352 276l-68 40c-15 8-40 23-55 32l-71 40c-15 8-30 1-30-16l0-224c0-18 15-25 30-16l70 40c15 8 40 23 55 32l69 40c15 8 15 23 0 32z"/>
<glyph unicode="&#107;" d="m427 388l-64-40c-16-9-43-24-59-32l-16-8l0 64c0 17-8 24-23 16l-66-40c-15-9-39-24-54-32l-68-40c-15-9-15-24 1-32l68-40c15-9 40-24 55-32l64-40c15-9 23-2 23 16l0 64l18-8c15-9 42-24 58-32l62-40c15-9 22-2 22 16l0 224c0 17-6 24-21 16z"/>
<glyph unicode="&#108;" d="m419 419c-96 95-251 95-347 0c-96-96-96-251 0-347c48-48 110-72 173-72c63 0 126 24 174 72c95 95 95 251 0 347z m-25-286l-96 56l-32 19l0-75l-192 112l192 112l0-74l32 18l96 56z"/>
<glyph unicode="&#109;" d="m198 383l-83-61c-14-11-25-17-25-14c0 2-15 4-32 4l-26 0c-18 0-32-14-32-32l0-70c0-18 14-32 32-32l26 0c17 0 32 1 32 2c0 1 11-7 25-18l83-61c14-10 26-4 26 13l0 256c0 18-12 24-26 13z m218-109l0 64l-64 0l0-64l-64 0l0-64l64 0l0-64l64 0l0 64l64 0l0 64z"/>
<glyph unicode="&#110;" d="m198 390l-83-61c-14-10-25-17-25-14c0 2-15 4-32 4l-26 0c-18 0-32-14-32-32l0-70c0-18 14-32 32-32l26 0c17 0 32 1 32 2c0 1 11-7 25-18l83-61c14-10 26-4 26 13l0 256c0 18-12 24-26 13z m99-86l-23-23c8-5 14-15 14-26c0-11-6-20-14-26l23-22c14 11 23 29 23 48c0 20-9 38-23 49z m69 67l-23-22c25-23 41-56 41-94c0-37-16-70-41-93l23-23c31 30 50 71 50 116c0 46-19 87-50 116z m69 68l-23-23c42-41 68-98 68-161c0-63-26-120-68-160l23-23c47 47 77 112 77 183c0 72-30 137-77 184z"/>
<glyph unicode="&#111;" d="m192 384l-32 0c-18 0-32-14-32-32l0-224c0-18 14-32 32-32l32 0c18 0 32 14 32 32l0 224c0 18-14 32-32 32z m160 0l-32 0c-18 0-32-14-32-32l0-224c0-18 14-32 32-32l32 0c18 0 32 14 32 32l0 224c0 18-14 32-32 32z"/>
<glyph unicode="&#112;" d="m240 480c-133 0-240-107-240-240c0-133 107-240 240-240c133 0 240 107 240 240c0 133-107 240-240 240z m-208-240c0 115 93 208 208 208c60 0 113-25 151-66l-71-71l0 55c0 17-12 23-26 13l-83-61c-14-11-25-17-25-15c0 3-15 5-32 5l-26 0c-18 0-32-14-32-32l0-70c0-18 14-32 32-32l26 0c15 0 28 0 30 1l-86-86c-41 37-66 91-66 151z m208-208c-43 0-84 13-117 36l89 89l82-60c14-11 26-5 26 13l0 155l92 92c23-33 36-74 36-117c0-115-93-208-208-208z"/>
<glyph unicode="&#113;" d="m419 419c-96 95-251 95-347 0c-96-96-96-251 0-347c48-48 110-72 173-72c63 0 126 24 174 72c95 95 95 251 0 347z m-200-302l-96 0l0 224l96 0z m160 0l-96 0l0 224l96 0z"/>
<glyph unicode="&#114;" d="m419 419c-96 95-251 95-347 0c-96-96-96-251 0-347c48-48 111-72 173-72c63 0 126 24 174 72c95 95 95 251 0 347z m-244-302l0 256l219-128z"/>
<glyph unicode="&#115;" d="m419 419c-96 95-251 95-347 0c-96-96-96-251 0-347c48-48 110-72 173-72c63 0 126 24 174 72c95 95 95 251 0 347z m-57-286l-48 0l0 76l-61-36l-96-56l0 224l96-56l61-36l0 76l48 0z"/>
<glyph unicode="&#116;" d="m419 419c-96 95-251 95-347 0c-48-48-72-111-72-174c0-63 24-125 72-173c48-48 110-72 173-72c63 0 126 24 174 72c95 95 95 251 0 347z m-75-291l-96 56l-62 36l0-76l-48 0l0 192l48 0l0-76l62 36l96 56z"/>
<glyph unicode="&#117;" d="m485 389l-91 91l-136-136l-135 136l-91-91l136-135l-136-136l91-91l135 136l136-136l91 91l-136 136z"/>
<glyph unicode="&#118;" d="m349 246l136 136l-91 90l-136-136l-135 136l-91-90l136-136l-136-136l91-90l135 135l136-135l91 90z m45-181l-113 113l-23 23l-22-23l-114-113l-45 45l136 136l-23 23l-113 113l46 45l113-113l22-23l23 23l113 113l45-45l-113-113l-22-23l22-23l113-113z"/>
<glyph unicode="&#120;" d="m485 334c-16 10-32 40-47 41c-8 1-30 2-30 2c-34 70-74 86-88 92c-15 5 12-49 12-49c-8 14-70 34-83 26c-14-8 19-41 30-50c13-10 50-21 60-29c10-9 6-25 6-25c-2-14-3-15-3-15c-5-2-5-2-5-2c-6 4-55 76-179 43c-104-28-92-126-90-143c-5 7-14 2-14 2c-12-6-6-17-6-17c-4 2-10 18-10 18c-14-19-17-30-7-53c11-23 42-30 65-9c0 0 7-28 24-30c5-1 10-7 9-13c-1-6-6-15-1-20c10-9 21-14 59-18c4-1 15-1 27-2c1-5 2-9 2-11c0-7 55-22 51-13c-5 11-10 17-13 22c3 0 6 0 8 0c8 1 14 16 2 21c-2 1-8 2-14 4c0 1 0 1 0 2c3 9 18 21 38 36c95-3 155 80 138 120c-8 18-5 18-5 18c0 0 45 3 53 12c8 9 25 32 11 40z m-290-216c0 0-21 5-13 30c3 9 28 24 40 19c2-2 4-5 6-8c1-1 2-2 2-4c2-3 2-6 0-9c-4-7-12-8-18-20c-1-3-2-7-2-11c-8 2-15 3-15 3z"/>
<glyph unicode="&#121;" d="m465 443l34 0l0-374l-34 0z m-253-170l281 0l0-34l-281 0z m-203 212l229-229l-229-229z"/>
<glyph unicode="&#122;" d="m10 443l33 0l0-374l-33 0z m33-170l282 0l0-34l-282 0z m234 212l229-229l-229-229z"/>
<glyph unicode="&#65;" d="m221 417c10-2 19-5 29-8c17-6 35-14 50-25c6-5 13-11 19-17c8-10 15-21 21-32c7-16 12-33 13-50c1-2 0-4 2-6c4-2 8-1 13-1c3 0 7 1 10 3c5 6 7 13 8 20c2 8 4 16 7 24c4 7 9 14 16 17c10 5 21 6 31 5c11-1 21-4 30-8c10-5 20-10 28-17c7-7 13-16 14-25l0 0c-1-8-3-15-5-22c-3-10-8-19-17-24c-6-5-13-7-20-8c-3-1-7 0-11 1c-4 2-9 4-14 5c-4 1-8-1-12-2c-8-2-16-6-23-9c-5-1-9-3-14-5c-10-5-20-10-28-17c-3-2-4-5-6-7c-3-6-4-13-7-19c-1-1-3-3-2-6c2-4 7-7 10-11c2-6-1-12-3-17c-2-6-4-12-4-18c1-8 7-15 10-22c0-3 0-7-2-9c-5-2-10-2-14-3c-3 0-6 1-8 2c-2 0-4-1-4-3c-2-3-3-7-6-9c-2-1-5-1-7-1c-6-1-13-1-20-1c-13 1-26 3-39 7c-1 1-3 1-4 3c-2 5-1 10 0 15c0 4 2 7 3 11c2 6 5 12 3 19c-13-7-27-10-41-13c-14-2-29-3-44-4c-6 0-12-1-18-1c-9 1-17 4-25 6c-8 3-17 7-26 5c-3 0-6-1-7-4c-1-5 2-9 4-13c2-4 5-9 4-14c-2-3-5-5-8-6c-3-1-5-2-8-1c-4 0-7 1-11 2c1-3 2-6 0-9c-2-2-5-3-8-3c-6 0-11 0-17 0l-14 0c-7 1-14 0-21 1c-3 0-8-1-11 2c-5 5-6 14-4 21c4 12 5 24 8 36c2 10 3 19 4 28c-7 6-16 9-22 15c-2 2-3 3-3 5c1 3 3 5 5 7c1 2 2 4 3 6c3 5 6 10 8 15c2 4 4 9 4 14c1 10-1 19-1 28c-2 22 3 43 13 62c10 20 25 37 42 50c9 7 19 13 29 19c21 10 44 18 67 18c17 2 34 0 51-2z"/>
</font>
</defs>
</svg>
